<?xml version="1.0" encoding="UTF-8" standalone="no"?>
<!-- Created with Inkscape (http://www.inkscape.org/) -->

<svg
   width="48"
   height="48"
   viewBox="0 0 12.7 12.7"
   version="1.1"
   id="svg1"
   xmlns="http://www.w3.org/2000/svg"
   xmlns:svg="http://www.w3.org/2000/svg">
  <defs
     id="defs1" />
  <g
     id="layer1">
    <path
       style="fill:#ffcc00;stroke-width:0.264583"
       d="M 3.584049,5.9526381 C 3.0075758,6.5477787 2.6365714,7.3383408 2.5471824,8.162066 c -0.089389,0.8237252 0.1033956,1.6754686 0.5387861,2.380415 0.4353904,0.704946 1.1106671,1.258691 1.8872334,1.547583 0.7765662,0.288892 1.6495716,0.311125 2.4398366,0.06214 C 8.2033036,11.903214 8.9058923,11.38456 9.3766022,10.702691 9.8473122,10.020822 10.083203,9.179996 10.035861,8.3527884 9.9885177,7.5255809 9.6582364,6.7171584 9.112805,6.093445 8.5673737,5.4697317 7.8101991,5.0346233 6.9966871,4.8774233 6.5557056,4.7922097 6.0994082,4.7869035 5.6565643,4.8618393 6.3623415,4.8464413 7.069808,5.1304837 7.5689866,5.6296623 8.0681652,6.1288409 8.3522076,6.8363074 8.3368096,7.5420846 8.3189576,8.3603425 7.8928771,9.1596565 7.2235022,9.6306151 6.5541274,10.101574 5.6578728,10.232628 4.8816753,9.9730471 4.1054779,9.7134664 3.4683716,9.0696161 3.2169781,8.2907285 2.9655845,7.5118409 3.1060685,6.6170159 3.584049,5.952637 Z"
       id="path2"
       transform="matrix(1.5717506,0,0,1.546146,-3.3792524,-6.7391932)" />
    <path
       style="fill:#000000;stroke-width:0.264583"
       d="m 3.4749693,11.61959 c 0.077914,0.316851 0.077914,0.316851 0.077914,0.316851 C 3.8697341,9.3756642 4.1865849,6.8148874 4.7709492,6.3655993 5.3553135,5.9163112 6.2071575,7.5784458 6.8564462,7.2252114 7.5057348,6.8719771 7.9524334,4.5034356 7.1680779,4.2385459 6.3837223,3.9736563 4.3683843,5.8123925 4.4359314,6.8096947 4.5034784,7.8069968 6.6538649,7.962822 6.7759113,8.3601903 6.8979578,8.7575587 4.9916974,9.3964414 4.1164637,10.032746 3.2412301,10.669051 3.3970553,11.30274 3.4749693,11.61959 Z"
       id="path3"
       transform="matrix(1.5717506,0,0,1.546146,-2.007683,-6.42598)" />
  </g>
</svg>
