<?xml version="1.0" encoding="UTF-8" standalone="no"?>
<!-- Created with Inkscape (http://www.inkscape.org/) -->

<svg
   width="32"
   height="32"
   viewBox="0 0 8.4666666 8.4666666"
   version="1.1"
   id="svg1"
   inkscape:version="1.4.2 (f4327f4, 2025-05-13)"
   sodipodi:docname="logo.svg"
   xmlns:inkscape="http://www.inkscape.org/namespaces/inkscape"
   xmlns:sodipodi="http://sodipodi.sourceforge.net/DTD/sodipodi-0.dtd"
   xmlns="http://www.w3.org/2000/svg"
   xmlns:svg="http://www.w3.org/2000/svg">
  <sodipodi:namedview
     id="namedview1"
     pagecolor="#ffffff"
     bordercolor="#000000"
     borderopacity="0.25"
     inkscape:showpageshadow="2"
     inkscape:pageopacity="0.0"
     inkscape:pagecheckerboard="0"
     inkscape:deskcolor="#d1d1d1"
     inkscape:document-units="mm"
     inkscape:zoom="25.46875"
     inkscape:cx="16"
     inkscape:cy="15.214724"
     inkscape:window-width="1920"
     inkscape:window-height="1017"
     inkscape:window-x="-8"
     inkscape:window-y="-8"
     inkscape:window-maximized="1"
     inkscape:current-layer="layer1" />
  <defs
     id="defs1">
    <clipPath
       clipPathUnits="userSpaceOnUse"
       id="clipPath5">
      <g
         inkscape:label="Clip"
         id="use5">
        <ellipse
           style="fill:#ffcc00;stroke-width:0.264583"
           id="ellipse9"
           cx="4.3060527"
           cy="4.2956643"
           rx="3.4957464"
           ry="3.4334152" />
      </g>
    </clipPath>
    <clipPath
       clipPathUnits="userSpaceOnUse"
       id="clipPath7">
      <g
         inkscape:label="Clip"
         id="use7">
        <ellipse
           style="fill:#ffffff;stroke-width:0.264583"
           id="ellipse10"
           cx="3.599632"
           cy="3.3399181"
           rx="2.8724332"
           ry="2.7997139" />
      </g>
    </clipPath>
  </defs>
  <g
     inkscape:label="图层 1"
     inkscape:groupmode="layer"
     id="layer1">
    <path
       style="fill:#999999;stroke-width:0.0103885"
       d="M 6.7161962,7.31296 C 6.7076263,7.3111079 6.2670213,7.2661838 5.7370757,7.2131216 4.8092708,7.1202227 4.7735238,7.1158653 4.7731618,7.0956231 c -2.069e-4,-0.011562 0.045313,-0.4733134 0.101154,-1.026114 0.097572,-0.965908 0.102345,-1.0051063 0.1224414,-1.0054595 0.011502,-2.021e-4 0.4732028,0.045261 1.0260034,0.1010293 0.9682033,0.097675 1.0051044,0.1021688 1.0054262,0.122433 1.836e-4,0.01157 -0.045322,0.4733274 -0.1011227,1.026128 l -0.1014566,1.005092 -0.046914,-0.00122 c -0.025803,-6.585e-4 -0.053927,-0.00271 -0.062497,-0.00456 z M 6.3262067,6.6616564 c 0.00284,-0.012856 0.024318,-0.2168898 0.047719,-0.4534088 0.029663,-0.299812 0.039164,-0.4321254 0.031374,-0.4369395 -0.013822,-0.00854 -0.8945726,-0.097032 -0.9010737,-0.090531 -0.00587,0.00587 -0.097081,0.9037373 -0.092295,0.9085226 0.00311,0.00311 0.8283316,0.091022 0.8859285,0.09438 0.016166,9.525e-4 0.024741,-0.00572 0.028347,-0.022023 z"
       id="path10" />
    <path
       style="fill:#ffcc00;stroke-width:0.0392638"
       d="M 14.86135,28.838709 C 12.233921,28.483789 10.079748,27.577364 8.0687117,25.98053 7.3491027,25.409134 6.2166712,24.200971 5.6216148,23.369781 4.1117645,21.260785 3.2728931,18.654904 3.2808504,16.0984 l 0.00232,-0.746253 0.1946989,0.530062 c 1.275508,3.472528 4.2203158,6.038364 7.8588827,6.847512 0.879924,0.195679 1.308984,0.237738 2.425208,0.237738 1.116388,0 1.532936,-0.04101 2.434356,-0.239683 0.53349,-0.11758 1.582515,-0.459332 2.012385,-0.655596 l 0.30441,-0.138983 -0.02092,0.145058 c -0.04289,0.297418 -0.450476,4.494863 -0.450476,4.639176 0,0.123278 0.01592,0.154125 0.08901,0.17247 0.151705,0.03808 1.004287,0.133941 2.659454,0.299033 0.874601,0.08724 1.652025,0.169154 1.727607,0.182041 l 0.137424,0.02343 -0.274847,0.13939 c -1.094244,0.554952 -2.494497,1.004673 -3.82173,1.227431 -0.999927,0.167824 -2.756056,0.204625 -3.697288,0.07748 z"
       id="path11"
       transform="scale(0.26458333)" />
    <path
       style="fill:#ffcc00;stroke-width:0.0392638"
       d="m 26.130617,24.646979 c -3.06e-4,-0.04907 0.09662,-1.061805 0.215395,-2.250522 0.118773,-1.188717 0.215951,-2.228862 0.215951,-2.311434 0,-0.123279 -0.01592,-0.154125 -0.08901,-0.17247 -0.155633,-0.03906 -1.022974,-0.137394 -2.639822,-0.299281 -0.863804,-0.08649 -1.645005,-0.167254 -1.736003,-0.179479 l -0.16545,-0.02223 0.3165,-0.38063 c 1.197697,-1.440373 1.999069,-3.240641 2.299838,-5.166541 0.09649,-0.617836 0.09649,-2.335494 0,-2.953329 C 24.093287,7.9993282 22.57489,5.5437303 20.14538,3.7909919 19.952701,3.651986 19.816379,3.5311457 19.842443,3.5224578 c 0.02606,-0.00869 0.280888,0.058225 0.566276,0.1486955 2.001461,0.6344787 3.778806,1.6972971 5.283657,3.1595257 2.198192,2.135933 3.504575,4.830554 3.855289,7.952143 0.06371,0.567031 0.05281,1.935629 -0.02047,2.571779 -0.310061,2.691541 -1.396592,5.126436 -3.190443,7.149722 -0.172487,0.194548 -0.205669,0.217512 -0.206135,0.142656 z"
       id="path12"
       transform="scale(0.26458333)" />
    <path
       style="fill:#333333;stroke-width:0.0103885"
       d="M 6.565708,7.7221511 C 6.1169355,7.2249027 2.1722615,2.8657852 1.7070347,2.3530061 L 1.3253154,1.9322699 1.3249276,1.510093 1.3245399,1.0879162 1.5608793,1.0794478 c 0.1299867,-0.00466 0.2862308,-0.00868 0.347209,-0.00895 L 2.0189578,1.070021 3.7719607,3.0074852 c 4.234774,4.6803815 3.8467313,4.2477769 3.8523688,4.2947664 0.0028,0.023349 0.00751,0.118088 0.010464,0.2105321 l 0.00537,0.1680795 -0.2080263,0.1929225 -0.2080263,0.1929222 -0.085143,6.22e-5 c -0.046829,3.44e-5 -0.1225423,0.00276 -0.1682517,0.00606 l -0.083109,0.006 z"
       id="path20" />
  </g>
</svg>
