<?xml version="1.0" encoding="UTF-8" standalone="no"?>
<!-- Created with Inkscape (http://www.inkscape.org/) -->

<svg
   width="48"
   height="48"
   viewBox="0 0 12.7 12.7"
   version="1.1"
   id="svg1"
   sodipodi:docname="logo.svg"
   inkscape:version="1.4.2 (f4327f4, 2025-05-13)"
   xmlns:inkscape="http://www.inkscape.org/namespaces/inkscape"
   xmlns:sodipodi="http://sodipodi.sourceforge.net/DTD/sodipodi-0.dtd"
   xmlns="http://www.w3.org/2000/svg"
   xmlns:svg="http://www.w3.org/2000/svg">
  <sodipodi:namedview
     id="namedview1"
     pagecolor="#ffffff"
     bordercolor="#000000"
     borderopacity="0.25"
     inkscape:showpageshadow="2"
     inkscape:pageopacity="0.0"
     inkscape:pagecheckerboard="0"
     inkscape:deskcolor="#d1d1d1"
     inkscape:zoom="16.979167"
     inkscape:cx="24"
     inkscape:cy="24"
     inkscape:window-width="1920"
     inkscape:window-height="1017"
     inkscape:window-x="-8"
     inkscape:window-y="-8"
     inkscape:window-maximized="1"
     inkscape:current-layer="svg1" />
  <defs
     id="defs1" />
  <g
     id="layer1">
    <path
       style="fill:#ffcc00;stroke-width:0.264583"
       d="M 3.584049,5.9526381 C 3.0075758,6.5477787 2.6365714,7.3383408 2.5471824,8.162066 c -0.089389,0.8237252 0.1033956,1.6754686 0.5387861,2.380415 0.4353904,0.704946 1.1106671,1.258691 1.8872334,1.547583 0.7765662,0.288892 1.6495716,0.311125 2.4398366,0.06214 C 8.2033036,11.903214 8.9058923,11.38456 9.3766022,10.702691 9.8473122,10.020822 10.083203,9.179996 10.035861,8.3527884 9.9885177,7.5255809 9.6582364,6.7171584 9.112805,6.093445 8.5673737,5.4697317 7.8101991,5.0346233 6.9966871,4.8774233 6.5557056,4.7922097 6.0994082,4.7869035 5.6565643,4.8618393 6.3623415,4.8464413 7.069808,5.1304837 7.5689866,5.6296623 8.0681652,6.1288409 8.3522076,6.8363074 8.3368096,7.5420846 8.3189576,8.3603425 7.8928771,9.1596565 7.2235022,9.6306151 6.5541274,10.101574 5.6578728,10.232628 4.8816753,9.9730471 4.1054779,9.7134664 3.4683716,9.0696161 3.2169781,8.2907285 2.9655845,7.5118409 3.1060685,6.6170159 3.584049,5.952637 Z"
       id="path2"
       transform="matrix(1.5717506,0,0,1.546146,-3.3792524,-6.7391932)" />
    <path
       style="fill:#000000;stroke-width:0.264583"
       d="m 3.4749693,11.61959 c 0.077914,0.316851 0.077914,0.316851 0.077914,0.316851 C 3.8697341,9.3756642 4.1865849,6.8148874 4.7709492,6.3655993 5.3553135,5.9163112 6.2071575,7.5784458 6.8564462,7.2252114 7.5057348,6.8719771 7.9524334,4.5034356 7.1680779,4.2385459 6.3837223,3.9736563 4.3683843,5.8123925 4.4359314,6.8096947 4.5034784,7.8069968 6.6538649,7.962822 6.7759113,8.3601903 6.8979578,8.7575587 4.9916974,9.3964414 4.1164637,10.032746 3.2412301,10.669051 3.3970553,11.30274 3.4749693,11.61959 Z"
       id="path3"
       transform="matrix(1.5717506,0,0,1.546146,-2.007683,-6.42598)" />
  </g>
  <path
     style="fill:#ff0000;stroke-width:0.0588957"
     d="m 14.773891,35.923075 c 0.01919,-0.09536 0.116369,-0.769701 0.215951,-1.498535 1.115425,-8.163665 2.309877,-14.120159 3.51751,-17.541114 0.198681,-0.562821 0.289322,-0.754694 0.319957,-0.677301 0.02351,0.05939 0.107583,0.274393 0.186832,0.477779 0.246373,0.6323 0.517118,1.021514 1.157638,1.664182 1.368882,1.373472 3.164714,2.274323 7.568098,3.796421 2.854805,0.986806 3.539623,1.264805 4.211043,1.709453 0.876809,0.580666 0.926788,1.081419 0.186281,1.866396 -0.905548,0.959927 -2.513384,1.892555 -7.224318,4.190475 -5.839259,2.8483 -7.749015,3.972231 -9.563015,5.628032 -0.548118,0.500316 -0.607285,0.539784 -0.575977,0.384212 z"
     id="path1"
     transform="scale(0.26458333)" />
  <path
     style="fill:#ff0000;stroke-width:0.0588957"
     d="m 31.038037,18.032469 c -0.520652,-0.174289 -0.927618,-0.38064 -1.560736,-0.79137 -0.681612,-0.44219 -0.978772,-0.67296 -2.666073,-2.070433 -1.70907,-1.415503 -2.285363,-1.838372 -3.046811,-2.235674 -0.779794,-0.406874 -1.129368,-0.497867 -1.790104,-0.465957 -0.719401,0.03474 -0.992003,0.16792 -1.596399,0.779907 -0.514871,0.521336 -0.880565,1.086464 -1.286866,1.988662 l -0.257856,0.572572 -0.03458,-0.291945 c -0.11097,-0.936973 0.317517,-2.491148 1.085184,-3.936087 0.963535,-1.8136151 2.223101,-3.4308423 4.228199,-5.4288192 2.211245,-2.2033925 4.212924,-3.6957626 6.395977,-4.7685797 1.475167,-0.72494055 2.433655,-1.00192301 3.467117,-1.00192301 1.790473,0 2.850341,1.19751761 3.309992,3.73987731 0.15019,0.8307094 0.178334,2.7396439 0.05774,3.9165644 -0.477319,4.6584302 -2.34157,8.9335912 -4.320447,9.9077892 -0.347165,0.170909 -0.448777,0.192384 -0.979705,0.207055 -0.493824,0.01365 -0.66095,-0.0066 -1.004637,-0.121639 z"
     id="path4"
     transform="scale(0.26458333)" />
  <path
     style="fill:#aa0000;stroke-width:0.0588957"
     d="m 13.176488,43.948977 c -0.442758,-1.815772 -0.534228,-2.547745 -0.432146,-3.458179 0.120048,-1.070672 0.420489,-1.955299 0.969633,-2.855015 0.33401,-0.54724 0.854793,-1.23634 0.900109,-1.191024 0.01589,0.01589 -0.10515,1.058634 -0.26897,2.317216 -0.16382,1.258583 -0.414946,3.211416 -0.558058,4.339629 -0.143112,1.128214 -0.270478,2.061572 -0.283036,2.074131 -0.01256,0.01256 -0.159947,-0.539484 -0.327532,-1.226758 z"
     id="path5"
     transform="scale(0.26458333)" />
  <path
     style="fill:#800000;stroke-width:0.0588957"
     d="m 14.81227,35.907729 c 0,-0.218709 0.892486,-6.186905 1.177387,-7.873373 0.846603,-5.011463 1.740418,-8.920421 2.541861,-11.116428 0.249428,-0.683448 0.265117,-0.703776 0.352373,-0.456578 0.04002,0.113374 0.178799,0.418159 0.3084,0.6773 0.196225,0.392357 0.354493,0.590263 0.946214,1.183194 1.441253,1.444199 3.012013,2.240393 7.601372,3.853015 3.006592,1.056465 3.598722,1.302795 4.285493,1.782791 0.405133,0.283155 0.573403,0.532306 0.573403,0.84902 0,0.651515 -1.159916,1.654775 -3.239264,2.801777 -0.4373,0.241222 -2.703313,1.395206 -5.035583,2.564407 -2.33227,1.169202 -4.664539,2.368291 -5.182822,2.664643 -1.62188,0.927383 -2.719952,1.705379 -3.973054,2.814956 -0.195679,0.173266 -0.35578,0.288141 -0.35578,0.255276 z"
     id="path6"
     transform="scale(0.26458333)" />
  <path
     style="fill:#550000;stroke-width:0.0588957"
     d="m 31.244172,18.069352 c -1.295419,-0.465973 -1.908884,-0.867494 -4.200873,-2.749524 -1.731731,-1.421983 -2.361758,-1.896307 -3.013149,-2.268484 -0.895074,-0.511407 -1.069906,-0.562928 -1.914813,-0.564278 -0.866276,-0.0014 -1.032191,0.06146 -1.61011,0.609873 -0.53551,0.508168 -0.898669,1.024304 -1.310525,1.86257 l -0.376175,0.765644 -6.75e-4,-0.449935 c -0.0022,-1.470185 0.83207,-3.528848 2.240481,-5.5286354 1.55045,-2.2014673 4.30977,-4.9593769 6.612214,-6.6088346 1.811177,-1.2975163 4.045349,-2.40227955 5.328818,-2.63501683 0.925038,-0.16774137 1.890474,-0.0471523 2.504797,0.31286486 0.761315,0.44616047 1.366851,1.53541847 1.698429,3.05519177 0.153792,0.7048963 0.217394,3.0942313 0.110473,4.1501082 -0.29061,2.869854 -1.220201,5.950276 -2.359575,7.819013 -0.668876,1.097054 -1.248097,1.706221 -1.965083,2.066679 -0.389222,0.195679 -0.430497,0.203655 -1.030675,0.199192 -0.343869,-0.0026 -0.66497,-0.01895 -0.713559,-0.03643 z"
     id="path7"
     transform="scale(0.26458333)" />
</svg>
